<?xml version="1.0" standalone="no"?>
<!DOCTYPE svg PUBLIC "-//W3C//DTD SVG 20010904//EN"
 "http://www.w3.org/TR/2001/REC-SVG-20010904/DTD/svg10.dtd">
<svg version="1.0" xmlns="http://www.w3.org/2000/svg"
 width="905.000000pt" height="693.000000pt" viewBox="0 0 905.000000 693.000000"
 preserveAspectRatio="xMidYMid meet">
<metadata>
Created by potrace 1.15, written by Peter Selinger 2001-2017
</metadata>
<g transform="translate(0.000000,693.000000) scale(0.100000,-0.100000)"
fill="#000000" stroke="none">
<path d="M4160 6920 c0 -5 -9 -10 -20 -10 -13 0 -18 -5 -14 -15 4 -10 -2 -18 -17 -24 -14 -4 -24 -16 -24 -27 0 -12 -8 -20 -23 -22 -12 -2 -20 -8 -17 -13 4 -5 1 -9 -4 -9 -6 0 -11 -7 -11 -15 0 -8 -6 -15 -13 -15 -8 0 -19 -11 -25 -25 -6 -14 -19 -25 -28 -25 -9 0 -14 -6 -11 -13 5 -15 -12 -32 -33 -32 -8 0 -14 -6 -12 -14 4 -20 -17 -41 -35 -34 -12 5 -15 2 -11 -9 8 -20 -10 -38 -36 -38 -17 0 -18 -2 -6 -10 10 -6 11 -10 3 -10 -7 0 -13 -7 -13 -15 0 -8 -9 -15 -20 -15 -11 0 -20 -7 -20 -14 0 -8 -12 -21 -27 -29 -16 -7 -27 -19 -25 -25 1 -7 -9 -12 -23 -12 -14 0 -24 -3 -24 -7 4 -27 -3 -43 -20 -43 -11 0 -23 -4 -26 -10 -3 -5 -1 -10 5 -10 6 0 8 -4 5 -10 -3 -5 -35 -10 -71 -10 -57 0 -64 2 -64 20 0 22 -15 27 -23 8 -3 -7 -6 4 -6 24 -1 34 -4 38 -26 36 -24 -2 -37 -18 -15 -18 6 0 6 -6 -2 -13 -7 -8 -21 -12 -32 -9 -18 5 -18 6 -2 18 21 15 13 20 -36 23 -31 2 -37 -1 -41 -21 l-4 -23 -2 23 c0 14 -7 22 -18 22 -15 0 -16 2 -3 10 18 11 12 17 -20 20 -39 3 -50 1 -50 -11 0 -5 5 -7 10 -4 6 3 10 1 10 -4 0 -6 -11 -11 -25 -11 -18 0 -23 4 -19 15 5 11 -1 15 -20 15 -14 0 -26 -5 -26 -11 0 -5 5 -7 10 -4 6 3 10 1 10 -4 0 -6 -4 -11 -10 -11 -5 0 -10 -8 -11 -17 0 -15 -2 -15 -8 2 -5 11 -6 25 -4 31 2 6 -11 15 -29 18 -29 7 -31 9 -13 16 16 7 13 9 -15 9 -19 -1 -29 -3 -22 -6 21 -8 13 -23 -13 -23 -16 0 -25 -6 -25 -15 0 -8 -8 -15 -17 -16 -15 0 -15 -2 2 -9 17 -7 17 -9 3 -9 -10 -1 -18 -5 -18 -11 0 -5 -5 -10 -11 -10 -13 0 -40 -26 -33 -33 3 -3 -11 -10 -32 -17 -26 -9 -33 -15 -23 -21 10 -6 3 -9 -21 -10 -19 -1 -27 -3 -17 -6 18 -5 18 -5 0 -19 -10 -7 -26 -14 -36 -14 -10 0 -15 -4 -12 -10 3 -5 1 -10 -5 -10 -6 0 -8 -4 -5 -10 3 -6 -5 -10 -18 -10 -17 0 -24 -5 -23 -17 0 -10 -9 -22 -21 -28 -12 -5 -24 -19 -27 -31 -4 -13 -13 -21 -23 -20 -12 1 -17 -5 -15 -16 2 -12 -6 -20 -23 -24 -13 -3 -22 -10 -19 -15 3 -5 0 -9 -5 -9 -6 0 -11 -7 -11 -15 0 -8 -3 -14 -7 -14 -25 4 -43 -3 -43 -16 0 -10 -10 -15 -27 -15 -22 0 -25 -2 -13 -10 10 -6 11 -10 3 -10 -7 0 -13 -7 -13 -16 0 -8 -5 -12 -10 -9 -11 7 -40 -18 -40 -34 0
-5 -12 -8 -26 -5 -15 3 -23 1 -20 -5 10 -16 -5 -41 -26 -41 -10 0 -16 -5 -13
-10 6 -9 -18 -41 -30 -40 -24 1 -29 -1 -18 -8 15 -9 -5 -37 -27 -37 -8 0 -16
-6 -16 -12 -1 -7 -2 -17 -3 -23 0 -5 -10 -10 -20 -10 -12 0 -21 -9 -25 -25 -4
-16 -13 -25 -27 -25 -11 0 -17 -4 -14 -10 9 -15 -14 -40 -37 -40 -10 0 -17 -4
-14 -9 10 -16 -6 -41 -26 -41 -10 0 -17 -4 -14 -9 10 -16 -5 -41 -25 -41 -21
0 -26 -16 -7 -22 7 -3 -2 -11 -20 -19 -18 -8 -30 -19 -27 -26 2 -7 0 -13 -5
-13 -6 0 -10 -7 -10 -15 0 -8 -6 -12 -14 -9 -8 3 -16 -4 -20 -20 -4 -17 -13
-26 -26 -26 -11 0 -20 -3 -19 -7 1 -5 -2 -17 -5 -28 -6 -17 -14 -20 -62 -17
-43 3 -54 7 -50 18 3 8 1 14 -3 14 -5 0 -12 -6 -14 -12 -4 -8 -6 -7 -6 3 -1 9
-9 20 -18 23 -15 6 -15 8 -3 16 18 12 15 12 -83 16 -80 2 -102 9 -78 23 9 6 6
10 -11 14 -36 10 -88 8 -88 -3 0 -5 5 -10 10 -10 6 0 10 -4 10 -10 0 -5 -7
-10 -15 -10 -8 0 -15 8 -15 19 0 10 -9 21 -20 24 -16 4 -20 0 -21 -21 l-1 -27
-8 25 -8 25 -2 -25 c-2 -18 -4 -20 -7 -7 -5 19 -52 47 -80 47 -15 0 -16 -2 -3
-11 12 -8 9 -10 -13 -6 -25 4 -27 2 -27 -29 0 -35 -19 -49 -22 -16 0 9 -4 -3
-7 -28 -5 -36 -10 -44 -24 -42 -11 2 -17 -2 -16 -10 4 -23 -12 -47 -27 -41 -9
3 -14 -2 -14 -15 0 -33 -11 -51 -27 -45 -9 4 -14 0 -13 -8 5 -34 -1 -50 -17
-47 -11 2 -19 -6 -24 -22 -7 -24 -7 -24 -8 -2 -1 22 -25 30 -36 12 -3 -5 1
-10 10 -10 9 0 13 -4 10 -10 -3 -5 -18 -10 -32 -10 -17 0 -23 -4 -20 -13 3 -8
1 -20 -3 -27 -7 -11 -11 -10 -25 3 -9 10 -12 17 -6 17 6 0 11 6 11 13 0 8 -14
11 -44 9 -43 -4 -45 -5 -49 -40 -4 -37 -4 -37 -5 6 -1 26 -7 42 -14 42 -9 0
-8 4 2 10 22 14 -2 28 -40 22 -42 -6 -48 -22 -8 -23 l33 -1 -35 -8 c-19 -5
-41 -4 -50 0 -10 6 -11 9 -2 10 6 0 12 5 12 11 0 5 -4 8 -9 5 -5 -4 -11 -2
-13 4 -2 6 -8 6 -18 0 -12 -8 -13 -12 -2 -19 11 -6 10 -10 -3 -15 -22 -8 -36
1 -28 19 3 8 0 15 -7 15 -6 0 -18 7 -27 15 -14 14 -17 14 -34 -1 -10 -9 -22
-13 -27 -10 -16 10 -19 -13 -21 -183 -1 -91 -4 -167 -6 -170 -3 -2 -5 35 -5
82 0 51 -4 87 -10 87 -6 0 -10 -38 -10 -95 0 -80 -2 -93 -15 -89 -8 4 -15 1
-15 -5 0 -6 9 -11 20 -11 40 0 19 -15 -25 -18 -43 -2 -45 -1 -45 24 0 19 -4
25 -15 20 -8 -3 -16 -1 -16 4 -1 6 -2 16 -3 23 0 6 -7 13 -13 13 -7 1 -17 2
-23 3 -5 0 -7 8 -4 16 4 8 2 15 -2 16 -5 0 -17 2 -26 4 -11 2 -18 -3 -18 -11
0 -9 4 -12 10 -9 5 3 10 1 10 -4 0 -6 -4 -11 -10 -11 -5 0 -10 -20 -10 -45 0
-31 -4 -44 -12 -42 -8 1 -14 -10 -16 -25 -3 -27 -22 -40 -22 -16 0 6 -3 9 -6
5 -9 -9 -11 -116 -2 -129 6 -10 8 -10 8 0 0 6 5 12 10 12 6 0 10 -12 10 -26 0
-21 -3 -24 -14 -15 -17 15 -26 -12 -15 -49 7 -24 7 -24 8 -2 1 12 6 22 11 22
17 0 11 -28 -11 -49 -18 -16 -20 -29 -18 -89 2 -39 0 -74 -4 -78 -4 -4 -7 38
-7 93 0 113 0 113 -82 113 l-38 0 0 -155 c0 -104 -4 -155 -11 -155 -6 0 -10
-10 -9 -22 1 -13 2 -30 1 -38 -1 -13 -2 -13 -11 0 -7 11 -10 -1 -11 -40 0 -40
-3 -50 -9 -35 -6 14 -9 -3 -11 -55 -2 -64 -3 -69 -9 -35 l-7 40 -2 -50 c-2
-38 -4 -45 -11 -30 -6 15 -9 5 -10 -35 -1 -40 -4 -50 -10 -35 -7 17 -9 14 -9
-13 -1 -20 3 -31 9 -27 15 9 12 -4 -4 -21 -11 -11 -16 -11 -19 -1 -3 6 -6 -10
-6 -38 -1 -36 -4 -46 -11 -35 -10 16 -15 -31 -12 -120 1 -34 0 -40 -7 -25 -9
18 -10 17 -10 -8 -1 -16 3 -26 8 -23 10 6 -2 -54 -19 -98 -15 -40 -13 -52 13
-64 12 -6 16 -11 10 -11 -30 -2 -10 -21 21 -21 35 0 55 -13 36 -25 -17 -10 -2
-24 21 -18 11 3 18 11 16 17 -3 7 1 20 9 31 8 10 15 13 15 7 1 -7 3 -30 4 -52
4 -57 7 -60 15 -15 l7 40 2 -37 c1 -32 5 -38 24 -39 22 0 21 -1 -3 -12 -24
-11 -23 -11 18 -15 l42 -3 0 -42 c0 -31 -3 -38 -10 -27 -10 16 -15 -31 -12
-120 1 -34 0 -40 -7 -25 -9 18 -10 17 -10 -8 -1 -16 3 -26 8 -23 10 6 -2 -54
-19 -98 -15 -40 -13 -52 13 -64 12 -6 16 -11 10 -11 -30 -2 -10 -21 21 -21 35
0 55 -13 36 -25 -17 -10 -2 -24 21 -18 11 3 18 11 16 17 -3 7 1 20 9 31 8 10
15 13 15 7 1 -7 3 -30 4 -52 4 -57 7 -60 15 -15 l7 40 2 -37 c1 -32 5 -38 24
-39 l22 0 -22 -9 c-31 -13 -29 -20 7 -20 22 0 30 5 31 18 0 15 1 15 8 -2 4
-11 16 -23 27 -27 17 -7 17 -8 -3 -8 -38 -1 -26 -21 12 -21 28 0 35 -4 35 -19
0 -12 10 -21 27 -26 21 -5 24 -8 13 -15 -17 -11 -11 -19 19 -25 21 -4 31 20
11 27 -6 2 -1 9 10 16 18 11 20 10 20 -11 0 -20 7 -26 42 -34 35 -9 38 -11 16
-12 -16 0 -28 -5 -28 -11 0 -13 77 -13 85 0 3 6 -2 10 -12 10 -15 0 -16 2 -3
10 8 5 23 10 33 10 16 0 18 -5 12 -40 -9 -54 1 -78 33 -83 l27 -4 -28 -2 c-39
-2 -24 -21 17 -21 39 0 50 -8 34 -27 -15 -18 -5 -26 23 -18 14 5 18 10 10 14
-9 6 -8 11 3 21 9 7 13 16 10 21 -3 5 0 9 5 9 6 0 11 -21 11 -50 0 -58 17 -68
23 -12 l4 37 1 -42 c2 -41 3 -42 39 -46 l38 -4 -37 -1 c-25 -1 -38 -7 -38 -16
0 -9 7 -12 20 -9 11 3 31 2 45 -1 23 -6 24 -8 10 -22 -19 -20 -20 -19 15 -19
23 0 30 5 31 20 0 19 1 19 9 -2 10 -26 1 -95 -11 -87 -9 5 -13 -17 -10 -45 2
-7 -2 -10 -8 -6 -7 3 -11 -2 -11 -14 0 -12 -4 -21 -9 -21 -5 0 -13 -14 -16
-31 -5 -23 -9 -28 -16 -18 -6 10 -9 8 -9 -10 0 -13 -5 -41 -11 -61 -16 -54 -6
-88 29 -93 l27 -4 -28 -2 c-34 -1 -26 -21 8 -21 40 0 57 -10 44 -26 -15 -19
-6 -28 20 -19 11 3 18 12 15 20 -3 7 0 16 5 20 6 3 9 11 6 16 -4 5 -1 9 4 9 6
0 11 -21 11 -50 0 -58 17 -68 23 -12 l4 37 1 -42 c2 -41 3 -42 40 -46 l37 -4
-37 -1 c-25 -1 -38 -7 -38 -16 0 -9 7 -12 20 -9 11 3 31 2 45 -1 23 -6 24 -8
10 -22 -19 -20 -20 -19 15 -19 23 0 30 5 30 19 0 31 11 11 12 -22 1 -25 6 -31
30 -36 27 -5 28 -7 14 -22 -20 -20 -21 -19 14 -20 28 -2 36 13 15 28 -6 5 -5
8 3 8 6 0 12 8 12 18 0 14 2 15 10 2 5 -8 7 -22 5 -31 -4 -12 3 -18 26 -23 30
-6 31 -7 15 -25 -16 -17 -15 -18 29 -16 42 1 79 15 42 15 -21 0 -22 16 -3 23
18 7 56 -3 56 -14 0 -5 -7 -6 -15 -3 -8 4 -15 2 -15 -4 0 -5 9 -12 19 -15 15
-4 18 -11 14 -27 -4 -16 -3 -21 5 -16 7 4 13 24 13 44 1 37 2 37 9 -8 4 -25 5
-51 3 -57 -3 -8 3 -13 15 -13 25 0 37 -17 24 -33 -8 -9 -3 -13 19 -14 29 -2
39 10 17 21 -10 5 -10 7 0 12 6 3 12 13 13 22 0 12 3 10 10 -6 5 -13 7 -27 4
-32 -3 -4 6 -11 19 -14 14 -3 23 -13 22 -22 0 -11 7 -18 22 -19 25 -2 28 5 10
23 -9 9 -9 12 0 12 7 0 12 16 12 40 0 22 4 40 8 40 4 0 6 -16 4 -35 -3 -21 0
-35 7 -35 6 0 11 7 11 15 0 8 5 15 10 15 6 0 10 -8 8 -17 -2 -11 6 -19 22 -24
24 -7 24 -7 3 -8 -28 -1 -30 -17 -3 -24 13 -3 18 -11 15 -26 -2 -12 0 -21 6
-21 5 0 10 12 10 28 1 20 2 22 6 7 3 -11 9 -25 14 -32 7 -7 5 -13 -3 -16 -10
-4 -10 -8 2 -16 25 -18 43 -13 37 9 -3 11 -1 20 4 20 5 0 10 19 11 43 l1 42 4
-37 c4 -38 22 -53 24 -20 0 9 5 4 9 -12 5 -16 7 -33 4 -38 -3 -4 4 -8 15 -8
14 0 21 -6 21 -20 0 -22 15 -27 23 -7 6 13 10 -16 8 -45 -2 -12 3 -16 13 -12
22 9 39 -5 26 -21 -8 -9 -6 -14 6 -19 28 -11 36 -7 31 14 -3 11 -1 20 4 20 5
0 10 21 11 48 l1 47 4 -42 c5 -50 22 -58 24 -10 1 31 2 31 9 -8 4 -22 6 -44 3
-49 -8 -12 16 -24 38 -19 10 3 20 17 22 32 4 23 4 22 6 -6 0 -18 6 -33 13 -33
9 0 9 -3 0 -12 -19 -19 -15 -24 18 -23 35 0 34 -1 14 19 -8 9 -10 16 -4 16 6
0 15 10 20 23 9 22 9 22 10 -3 l2 -25 8 25 c13 39 11 48 -7 53 -12 3 -9 5 8 6
23 1 25 -2 23 -39 -3 -57 14 -50 19 8 l3 47 2 -47 c1 -28 7 -48 13 -48 8 0 8
-4 0 -14 -9 -11 -6 -15 14 -18 30 -6 39 1 24 19 -8 9 -8 13 -1 13 6 0 13 17
15 38 l4 37 1 -37 c3 -56 22 -46 22 11 0 28 5 53 11 57 8 4 7 9 -2 15 -10 6
-11 9 -1 9 6 0 12 7 12 15 0 8 4 15 9 15 5 0 13 14 16 31 5 23 9 28 16 18 7
-12 9 -11 10 1 1 8 3 20 4 25 2 6 4 19 5 30 1 15 3 16 7 5 8 -21 23 -29 40
-23 11 4 12 8 3 13 -8 5 -9 13 -4 21 5 8 9 17 10 22 1 4 3 13 4 20 1 6 6 1 10
-13 l8 -25 2 25 c1 14 1 33 1 43 -1 9 5 20 13 23 9 3 16 13 16 22 0 14 1 14
13 0 6 -9 19 -18 27 -21 10 -3 7 -6 -8 -6 -34 -1 -16 -21 19 -21 23 0 29 -4
29 -20 0 -14 6 -20 18 -18 11 2 17 -3 17 -16 0 -13 10 -22 27 -27 25 -6 27 -5
18 11 -13 25 -13 30 5 30 9 0 15 -9 15 -21 0 -15 5 -19 15 -15 8 3 15 1 15 -5
0 -6 23 -10 58 -9 75 3 76 3 57 -17 -12 -11 -15 -25 -11 -45 3 -18 2 -27 -4
-23 -6 4 -11 -11 -12 -37 l-1 -43 -6 45 -7 45 -4 -55 c-6 -67 -2 -102 11 -95
5 4 9 -6 9 -20 0 -21 4 -26 23 -25 38 3 44 1 50 -20 6 -22 32 -27 43 -8 4 7 3
8 -4 4 -7 -4 -12 -1 -12 7 0 8 7 17 15 21 12 4 15 -4 16 -37 1 -36 2 -38 9
-17 7 22 8 22 9 4 1 -11 4 -24 8 -28 4 -4 8 -15 8 -24 0 -13 8 -17 33 -16 29
2 36 -4 30 -23 -2 -4 10 -10 26 -13 16 -3 31 -11 34 -19 3 -8 0 -11 -7 -7 -6
4 -11 0 -12 -11 0 -16 -1 -16 -9 2 -7 17 -9 16 -9 -9 -1 -30 -15 -82 -33 -122
-6 -12 -7 -32 -3 -44 5 -15 4 -20 -4 -16 -7 5 -12 -7 -13 -36 l-1 -43 -6 45
-7 45 -4 -55 c-6 -67 -2 -102 11 -95 5 4 9 -6 9 -20 0 -21 4 -26 23 -25 38 3
44 1 50 -20 6 -22 32 -27 43 -8 4 7 3 8 -4 4 -7 -4 -12 -1 -12 7 0 8 7 17 15
21 12 4 15 -4 16 -37 1 -36 2 -38 9 -17 7 22 8 22 9 4 1 -11 4 -24 8 -28 4 -4
8 -15 8 -24 0 -13 8 -17 33 -16 29 2 37 -5 33 -29 0 -4 10 -7 23 -7 15 0 36
-15 62 -45 43 -51 54 -55 54 -20 0 18 4 23 15 19 8 -4 15 -12 15 -20 0 -8 7
-14 15 -14 13 0 17 -6 14 -26 -1 -13 26 -24 59 -24 32 0 43 14 20 23 -10 4 -9
8 2 16 10 7 18 6 28 -1 9 -8 10 -13 2 -18 -8 -5 -6 -9 5 -14 10 -3 15 -12 11
-21 -3 -8 -1 -15 4 -15 6 0 10 5 10 12 0 6 6 3 14 -7 8 -11 12 -23 10 -26 -2
-4 8 -14 21 -23 14 -9 23 -21 20 -25 -5 -8 17 -21 34 -21 5 0 6 11 3 25 -3 20
-1 24 12 19 9 -3 16 -12 16 -20 0 -8 5 -14 10 -14 6 0 15 -11 19 -24 5 -13 19
-26 30 -29 18 -4 20 -2 15 18 -5 18 0 24 25 33 29 10 31 9 31 -12 0 -13 7 -26
15 -30 8 -3 15 -12 15 -21 0 -8 7 -15 16 -15 9 0 18 -9 21 -20 3 -10 14 -22
25 -26 21 -6 41 6 20 13 -10 4 -10 8 -1 19 17 20 50 17 56 -5 3 -11 11 -22 19
-25 8 -3 14 -12 14 -20 0 -7 7 -16 15 -20 8 -3 15 -12 15 -20 0 -8 9 -18 20
-21 11 -3 20 -12 20 -20 0 -8 9 -17 21 -20 24 -8 39 3 20 14 -11 7 -11 10 0
17 8 5 24 10 37 12 16 2 22 -2 22 -17 0 -10 7 -22 16 -25 22 -8 22 -8 26 11 2
12 7 8 18 -13 19 -36 40 -60 40 -44 0 6 5 8 10 5 6 -3 10 -2 10 4 0 5 -4 11
-9 13 -5 2 -3 12 5 22 8 11 14 14 14 8 0 -7 4 -12 9 -12 4 0 6 12 4 27 l-4 28
19 -22 c11 -13 25 -23 31 -23 6 0 11 -9 11 -20 0 -11 5 -20 11 -20 5 0 7 -4 4
-10 -3 -5 -1 -10 4 -10 6 0 11 5 11 11 0 5 5 7 12 3 8 -5 9 -2 5 9 -3 10 -4
24 -1 32 5 13 9 13 22 3 12 -10 14 -10 8 0 -4 6 -2 12 3 12 6 0 12 21 12 48 1
29 4 36 6 20 6 -41 19 -34 27 14 7 43 7 43 21 18 14 -24 14 -23 15 25 0 36 3
46 10 35 9 -13 11 -13 20 0 5 8 7 22 5 30 -2 8 0 22 5 30 6 10 10 11 10 3 0
-7 5 -13 11 -13 7 0 9 9 6 21 -3 12 0 28 9 36 8 8 14 11 14 6 0 -4 5 -1 10 7
7 11 5 17 -7 21 -12 4 -6 10 21 23 34 16 48 36 25 36 -6 0 -3 7 5 16 9 8 20
13 25 10 5 -3 11 1 15 9 3 8 1 15 -4 15 -6 0 -10 5 -10 11 0 5 5 7 10 4 6 -3
10 1 10 9 0 9 5 15 11 13 6 -1 14 4 16 11 3 6 0 12 -6 12 -6 0 -3 8 7 18 11
13 21 16 30 9 9 -7 12 -4 12 12 0 13 -7 21 -17 22 -13 0 -11 3 7 11 14 6 29
10 35 9 5 -2 7 1 3 4 -11 11 10 45 28 45 8 0 13 3 10 8 -2 4 -1 23 4 42 6 25
8 28 9 12 1 -30 21 -18 21 13 0 31 16 40 29 18 8 -14 10 -10 8 22 -2 33 1 39
15 37 12 -2 18 6 20 30 2 21 8 33 18 33 8 0 16 9 18 20 2 11 5 27 8 35 4 13 6
13 14 0 7 -11 10 -6 10 18 0 25 5 35 20 39 11 3 20 14 20 25 0 11 9 22 20 25
12 3 20 14 20 27 0 11 4 27 9 35 7 11 10 9 16 -8 11 -36 27 -24 23 19 -2 22 0
40 4 40 5 0 8 -24 8 -54 0 -50 2 -54 27 -61 15 -3 23 -9 17 -13 -19 -14 -12
-27 15 -28 17 -1 28 4 28 13 0 7 -5 13 -11 13 -8 0 -8 2 0 8 6 4 14 14 17 22
3 8 6 -2 6 -23 1 -21 5 -36 10 -33 16 10 41 -5 39 -23 -2 -10 4 -16 17 -16 11
0 20 7 21 15 1 8 2 24 3 35 l2 20 12 -20 c11 -19 12 -17 18 15 l6 35 2 -32 c0
-18 5 -33 11 -33 5 0 7 -7 4 -15 -4 -10 0 -15 11 -15 13 0 16 -6 13 -23 -3
-15 0 -24 9 -24 7 0 13 7 14 16 0 14 1 14 6 1 3 -8 11 -18 17 -22 8 -5 7 -8
-1 -8 -7 0 -13 -6 -13 -14 0 -10 8 -13 21 -11 28 6 36 14 22 23 -9 5 -6 11 7
20 14 9 20 9 20 1 0 -8 5 -8 15 1 16 13 19 6 16 -31 -1 -11 5 -16 16 -15 12 0
18 -6 18 -19 0 -13 6 -19 18 -17 11 2 17 -4 17 -16 0 -13 9 -22 28 -27 15 -4
21 -10 15 -12 -22 -8 -15 -32 8 -28 28 5 36 14 23 23 -6 4 -3 13 8 24 17 17
18 17 18 1 0 -21 16 -6 23 22 4 16 5 14 6 -7 0 -14 7 -29 14 -31 10 -4 10 -6
0 -6 -7 -1 -13 -7 -13 -15 0 -10 10 -14 35 -11 30 3 35 0 35 -19 0 -15 7 -22
20 -23 24 -2 37 16 19 27 -9 6 -5 11 14 15 20 6 27 13 27 32 0 21 3 23 14 13
8 -6 13 -17 10 -25 -3 -7 0 -16 6 -20 8 -5 10 7 9 39 -2 25 0 49 4 52 4 4 7
-18 7 -50 0 -36 4 -55 10 -51 6 3 10 1 10 -4 0 -6 -4 -11 -10 -11 -5 0 -10 -4
-10 -10 0 -5 11 -9 25 -8 16 2 25 8 24 18 -1 8 1 23 6 33 6 15 10 16 16 5 6
-9 9 -3 9 18 0 24 4 31 17 30 10 0 18 6 19 14 3 43 3 43 19 30 17 -14 21 -9
34 60 8 40 9 41 10 13 1 -41 17 -43 24 -4 5 24 10 28 27 24 16 -4 20 -1 20 18
0 25 20 65 20 42 0 -7 5 -13 11 -13 6 0 9 8 7 18 -3 10 1 27 8 37 8 10 14 13
14 7 0 -30 18 -8 25 30 6 35 8 39 15 23 7 -18 9 -18 15 -3 4 9 5 21 2 25 -3 5
1 17 9 28 8 10 14 13 14 7 0 -7 5 -12 10 -12 6 0 10 19 10 43 1 33 3 38 11 25
12 -22 44 -24 35 -3 -3 8 -1 15 4 15 6 0 13 0 18 0 4 0 7 -8 7 -18 0 -13 7
-16 33 -14 27 3 32 0 32 -17 0 -25 17 -28 23 -4 4 14 5 12 6 -4 0 -13 6 -23
12 -23 8 0 8 -5 -1 -15 -11 -13 -8 -15 15 -15 20 0 26 4 22 15 -7 17 8 29 23
20 8 -5 8 -11 0 -20 -14 -17 15 -29 39 -15 22 11 31 4 31 -23 0 -13 5 -17 15
-13 11 4 15 -1 15 -19 0 -18 6 -25 18 -25 26 0 34 -11 21 -27 -9 -10 -6 -13
16 -13 20 0 26 4 22 15 -7 17 8 29 23 20 8 -5 7 -11 -1 -21 -12 -15 -13 -15
48 -18 21 0 33 4 33 12 0 6 5 12 10 12 6 0 10 -7 10 -15 0 -8 5 -15 10 -15 6
0 10 -5 10 -11 0 -5 -4 -7 -10 -4 -5 3 -10 2 -10 -3 0 -6 6 -12 13 -14 16 -7
38 2 32 12 -3 4 -1 19 4 32 7 17 10 18 10 6 1 -10 6 -18 12 -18 8 0 8 -5 -1
-15 -7 -8 -9 -15 -4 -16 5 0 17 -2 27 -4 9 -2 17 3 17 11 0 8 -5 14 -11 14 -6
0 -4 7 5 15 20 21 26 19 26 -8 0 -17 6 -23 24 -25 13 -1 24 4 23 11 0 6 1 21
1 31 2 20 2 20 16 0 10 -13 11 -23 4 -31 -10 -13 -8 -14 24 -17 7 -1 13 6 14
14 2 35 5 40 22 40 11 0 13 -3 6 -8 -9 -5 -9 -10 0 -17 19 -16 36 -16 36 0 0
8 -5 15 -12 15 -6 0 -3 6 8 14 10 8 20 11 22 6 2 -5 10 -6 18 -3 13 5 13 7 2
14 -11 7 -10 11 2 19 8 5 20 8 25 6 6 -2 16 3 23 10 7 8 8 14 2 14 -6 0 -6 7
2 20 9 14 14 16 20 7 5 -9 10 -9 20 2 10 11 10 14 1 18 -17 6 10 35 29 31 7
-2 14 4 14 12 1 8 2 21 3 28 1 9 8 11 21 7 15 -5 20 -2 20 14 0 10 3 26 6 35
8 22 43 -1 37 -24 -4 -14 3 -18 35 -22 24 -2 38 1 36 7 -2 5 0 33 5 60 l9 50
1 -42 c1 -28 5 -41 14 -39 6 1 9 1 5 -1 -13 -7 -9 -33 4 -30 6 1 15 -9 19 -23
l7 -25 2 25 c1 21 4 18 13 -15 10 -33 18 -40 45 -46 31 -6 60 10 34 19 -19 6
-14 22 8 22 13 0 20 -7 20 -20 0 -11 5 -20 10 -20 6 0 10 7 10 17 0 9 3 13 7
10 3 -4 6 -20 5 -37 0 -16 4 -30 9 -30 5 0 9 8 10 18 0 13 2 12 9 -6 5 -12 7
-28 4 -36 -4 -9 3 -13 21 -13 31 0 44 -11 26 -22 -16 -10 -5 -18 33 -22 17 -3
31 1 33 9 3 6 0 12 -6 12 -6 0 -11 5 -11 11 0 5 5 7 10 4 6 -3 10 1 10 9 0 9
5 16 10 16 6 0 9 -6 8 -13 -2 -6 3 -11 10 -9 17 3 15 -9 -5 -24 -16 -12 -12
-13 29 -14 45 0 47 -1 39 -22 -8 -22 -7 -23 36 -19 33 2 41 6 34 15 -6 7 -7
16 -2 22 5 5 11 18 14 29 4 18 5 18 6 -2 0 -13 6 -23 11 -23 6 0 10 10 10 23
1 21 1 21 12 2 6 -11 16 -23 22 -27 8 -5 7 -8 -1 -8 -7 0 -13 -6 -13 -13 0
-13 12 -17 54 -18 23 0 36 12 19 18 -7 3 -13 9 -13 14 0 6 5 7 10 4 6 -3 10 2
10 11 0 16 1 16 15 -2 14 -18 14 -17 15 15 0 25 -3 32 -15 27 -8 -3 -15 -1
-15 4 0 6 7 10 15 10 8 0 15 5 15 10 0 6 6 10 13 10 7 0 13 9 14 20 1 11 -2
20 -8 20 -5 0 -8 19 -8 43 l2 42 6 -35 c3 -19 11 -36 18 -37 8 -2 9 6 2 30 -5
17 -9 33 -9 34 0 2 10 3 23 3 21 1 21 1 3 15 -18 13 -17 14 8 21 14 3 37 4 50
2 14 -3 23 0 23 9 0 7 -6 13 -14 13 -7 0 -13 5 -13 10 0 6 5 9 12 8 7 -2 15
12 19 32 l6 35 2 -32 c0 -18 6 -33 12 -33 8 0 9 13 5 39 -5 33 -3 39 14 44 22
6 29 57 8 57 -7 0 -4 6 7 12 11 7 22 11 25 11 3 -1 10 15 16 35 7 20 12 29 13
20 1 -9 6 -20 13 -24 8 -5 9 0 5 16 -4 17 -1 23 14 27 11 3 18 13 17 22 -2 12
5 16 31 17 19 0 36 5 39 12 2 7 -4 12 -13 12 -9 0 -13 5 -10 10 4 6 11 8 16 5
5 -4 10 4 10 17 1 17 3 18 6 6 2 -10 10 -18 17 -18 19 0 8 48 -13 53 -14 4
-14 5 1 6 11 1 15 7 12 15 -4 11 0 13 16 9 20 -5 21 -4 11 15 -6 11 -11 23
-11 26 0 8 24 3 30 -6 3 -4 12 -2 20 3 11 8 12 12 3 16 -7 2 -13 9 -13 14 0 6
5 7 10 4 6 -3 10 1 10 9 0 9 5 16 11 16 5 0 7 -4 4 -10 -3 -5 -1 -10 4 -10 17
0 13 37 -4 44 -8 3 -15 11 -15 18 0 9 3 8 10 -2 8 -13 10 -12 10 4 0 15 3 16
14 7 11 -9 15 -8 20 6 5 12 0 23 -13 35 -20 16 -30 45 -12 34 5 -4 12 0 14 6
3 8 6 6 6 -4 1 -10 6 -18 11 -18 14 0 13 33 -1 47 -16 16 -4 44 15 37 12 -5
14 2 10 31 -4 33 -2 36 16 30 11 -4 20 -3 19 2 -3 19 3 67 8 56 10 -26 23 -12
23 25 -1 35 -2 36 -15 18 -14 -19 -15 -17 -15 19 0 36 1 38 15 19 14 -18 14
-17 15 14 0 32 -14 44 -23 20 -3 -8 -6 -6 -6 5 -1 9 -7 17 -13 17 -10 0 -9 3
1 9 7 5 11 13 7 19 -10 16 -46 10 -46 -7 0 -11 -5 -8 -16 7 -11 17 -13 26 -5
36 8 9 6 13 -7 13 -9 1 -24 -1 -32 -3 -12 -4 -12 -6 -1 -14 12 -7 11 -11 -2
-25 -10 -9 -17 -12 -17 -6 0 6 -6 11 -14 11 -8 0 -16 10 -18 23 -2 14 -9 21
-21 21 -12 -1 -17 5 -16 25 0 14 3 20 6 14 2 -7 9 -13 14 -13 12 0 12 47 -1
55 -5 3 -10 -2 -10 -12 0 -15 -2 -16 -10 -3 -15 23 -12 43 5 36 10 -4 15 1 15
14 0 30 -3 35 -17 32 -7 -2 -13 6 -13 17 0 14 5 19 15 15 11 -5 15 1 15 20 0
14 -4 26 -10 26 -5 0 -10 -6 -10 -12 0 -9 -3 -9 -9 1 -5 8 -7 21 -4 28 5 12 7
12 14 2 5 -9 10 -4 15 14 7 32 -3 49 -16 27 -7 -11 -10 -8 -10 13 0 17 5 27
15 27 8 0 17 11 21 25 8 30 -3 46 -16 25 -8 -12 -10 -11 -10 6 0 12 7 27 15
34 8 7 15 21 15 32 0 17 -3 18 -15 8 -13 -11 -14 -8 -9 17 5 25 2 31 -15 36
-15 3 -19 10 -15 22 5 13 9 14 15 3 9 -13 9 -11 13 35 1 6 -7 11 -16 9 -13 -2
-18 4 -17 20 0 13 3 17 6 11 8 -22 23 -14 23 11 0 28 -16 43 -23 24 -3 -7 -5
3 -5 22 0 19 2 27 5 17 2 -9 9 -15 14 -12 12 8 12 52 -1 60 -5 3 -10 -2 -10
-12 0 -14 -2 -15 -9 -4 -5 8 -7 29 -4 48 3 19 0 39 -7 48 -9 11 -9 15 -1 15 7
0 9 5 6 10 -9 14 -53 12 -58 -2 -2 -7 -7 2 -11 20 -9 37 -27 41 -56 12 -20
-20 -20 -20 -26 19 -4 28 -10 38 -20 34 -9 -3 -14 2 -14 16 0 23 15 29 23 9 3
-7 6 4 6 24 1 29 -2 36 -14 32 -11 -4 -15 0 -15 16 0 19 2 20 15 10 13 -11 15
-8 15 15 0 19 -4 26 -14 22 -18 -7 -27 15 -15 34 7 12 9 12 9 -1 1 -8 5 -5 11
8 11 28 4 43 -16 35 -11 -4 -15 2 -14 18 0 13 3 18 6 12 8 -22 23 -14 23 11 0
28 -16 43 -23 24 -3 -7 -5 3 -5 22 0 19 2 27 5 17 2 -9 9 -15 14 -12 12 8 12
52 -1 60 -5 3 -10 -2 -10 -12 0 -14 -2 -15 -9 -4 -5 8 -7 29 -4 48 3 19 0 39
-7 48 -9 11 -9 15 -1 15 7 0 9 5 6 10 -9 14 -53 12 -58 -2 -2 -7 -7 2 -11 20
-8 35 -16 38 -49 21 -16 -9 -22 -9 -25 0 -5 14 -37 13 -82 -3 -32 -12 -33 -13
-15 -24 18 -10 18 -11 3 -12 -13 0 -18 -9 -19 -32 l-2 -33 -6 35 c-6 32 -9 35
-39 34 -28 -2 -32 1 -32 22 0 43 -20 25 -21 -18 -2 -32 -3 -35 -6 -13 -2 17
-6 45 -9 64 l-5 33 -80 -4 c-77 -4 -79 -4 -79 19 0 17 -6 23 -21 23 -11 0 -17
4 -14 10 3 6 15 10 25 10 29 0 35 20 11 36 -25 18 -19 34 11 34 14 0 18 5 14
16 -3 9 -6 21 -6 27 0 7 -4 6 -10 -3 -7 -11 -10 -6 -9 20 0 19 3 29 6 23 9
-24 23 -13 23 18 0 24 -4 30 -15 25 -10 -3 -15 1 -15 11 0 9 3 14 6 10 8 -8
44 25 44 41 0 7 -6 10 -12 7 -7 -4 -6 -1 3 7 9 7 18 20 22 28 4 11 6 10 6 -5
1 -16 3 -17 10 -6 5 8 7 30 5 50 -2 20 -2 30 2 24 3 -7 10 -13 15 -13 14 0 11
38 -3 42 -9 3 -8 9 5 22 9 10 17 13 17 7 0 -6 4 -11 9 -11 6 0 8 19 4 45 -3
31 -1 45 7 45 6 0 9 -4 5 -9 -3 -5 -1 -12 5 -16 6 -4 10 4 10 19 0 13 -6 27
-12 29 -9 4 -10 8 -2 14 6 4 14 15 17 23 4 12 6 11 6 -2 1 -10 5 -18 10 -18 5
0 8 14 6 31 -3 18 0 39 5 48 8 14 9 13 10 -4 0 -16 2 -17 9 -6 5 8 7 30 5 50
-2 20 -2 30 2 24 9 -20 24 -15 24 6 0 24 -16 36 -23 19 -3 -7 -5 -1 -4 14 1
15 5 24 9 22 4 -3 8 1 8 8 1 8 6 6 15 -6 14 -19 15 -18 15 13 0 18 -4 30 -9
27 -5 -3 -11 1 -15 9 -7 20 12 30 29 15 12 -10 13 -7 5 22 -6 18 -15 35 -20
36 -16 6 -11 19 9 25 13 3 19 13 18 31 -2 20 -6 24 -19 20 -17 -5 -23 4 -19
34 1 7 -9 12 -24 12 -14 0 -25 -5 -25 -11 0 -6 -7 -3 -17 6 -13 14 -14 18 -2
25 11 7 10 10 -4 16 -9 3 -25 3 -34 0 -14 -6 -15 -9 -4 -16 12 -7 11 -11 -2
-25 -10 -9 -17 -12 -17 -6 0 6 -8 11 -17 11 -17 1 -17 1 -1 14 23 17 13 26
-28 26 -34 0 -54 -14 -32 -23 10 -4 10 -8 2 -14 -7 -4 -14 -19 -17 -33 -4 -25
-4 -25 -6 3 0 15 -5 27 -10 27 -5 0 -7 -9 -4 -19 3 -11 0 -28 -6 -38 -6 -10
-11 -13 -11 -6 0 6 -7 19 -16 27 -8 9 -11 16 -5 16 6 0 11 5 11 10 0 6 -9 10
-20 10 -16 0 -20 7 -20 35 0 19 5 35 11 35 5 0 8 -4 4 -9 -3 -5 -1 -12 5 -16
6 -4 10 4 10 19 0 13 -6 27 -12 29 -9 4 -10 8 -2 14 6 4 14 15 17 23 4 12 6
11 6 -2 1 -10 5 -18 10 -18 5 0 8 14 6 31 -3 18 0 39 5 48 8 14 9 13 10 -4 0
-16 2 -17 9 -6 5 8 7 30 5 50 -2 20 -2 30 2 24 9 -20 24 -15 24 6 0 24 -16 36
-23 19 -3 -7 -5 -1 -4 14 1 15 5 24 9 22 4 -3 8 1 8 8 1 8 6 6 15 -6 14 -19
15 -18 15 13 0 18 -4 30 -9 27 -5 -3 -11 1 -15 9 -7 20 12 30 29 15 12 -10 13
-7 5 22 -6 18 -15 35 -20 36 -16 6 -11 19 9 25 13 3 19 13 18 31 -2 20 -6 24
-19 20 -17 -5 -23 4 -19 34 1 7 -9 12 -24 12 -14 0 -25 -5 -25 -11 0 -6 -7 -3
-17 6 -13 14 -14 18 -2 25 11 7 10 10 -4 16 -9 3 -25 3 -34 0 -14 -6 -15 -9
-4 -16 12 -7 11 -11 -2 -25 -10 -9 -17 -12 -17 -6 0 6 -8 11 -17 11 -17 1 -17
1 -1 14 23 17 13 26 -28 26 -34 0 -54 -14 -32 -23 10 -4 10 -8 2 -14 -7 -4
-14 -19 -17 -33 -4 -25 -4 -25 -6 3 0 15 -5 27 -10 27 -5 0 -7 -9 -4 -19 3
-11 0 -28 -6 -38 -6 -10 -11 -13 -11 -6 0 6 -7 19 -16 27 -8 9 -11 16 -5 16 6
0 11 5 11 11 0 6 -14 9 -32 7 -28 -3 -33 0 -34 20 -2 37 -14 38 -15 1 l-1 -34
-9 35 c-4 19 -6 41 -4 48 3 9 -16 12 -75 12 -75 0 -80 -1 -80 -22 0 -36 -10
-14 -12 26 -1 33 -4 36 -32 37 -17 1 -35 1 -39 0 -5 -1 -6 3 -2 9 3 5 15 10
26 10 11 0 17 5 14 10 -3 6 -17 10 -30 10 -17 0 -25 -7 -28 -22 l-4 -23 -2 23
c0 12 -6 22 -12 22 -8 0 -7 5 1 16 11 13 10 16 -8 21 -13 3 -22 13 -22 24 0
11 -5 19 -11 19 -5 0 -8 -3 -6 -7 3 -5 1 -17 -4 -28 -7 -17 -8 -17 -8 8 -1 15
-5 27 -11 27 -5 0 -10 5 -10 10 0 6 8 10 18 10 14 0 15 2 2 10 -20 13 -77 13
-85 0 -3 -5 1 -10 9 -10 9 0 16 -4 16 -10 0 -5 -13 -10 -30 -10 -16 0 -30 5
-30 10 0 6 5 10 11 10 5 0 7 5 4 10 -3 6 -32 10 -63 10 -43 0 -53 3 -44 12 22
22 13 27 -55 30 -44 2 -68 7 -68 15 0 6 -3 15 -7 19 -5 4 -8 2 -8 -5 0 -8 -6
-7 -17 4 -13 13 -14 18 -3 25 10 6 8 10 -6 18 -14 7 -23 6 -32 -4 -7 -8 -8
-14 -2 -14 5 0 10 -4 10 -10 0 -5 -11 -10 -25 -10 -25 0 -37 20 -12 20 6 0 4
5 -6 11 -10 6 -27 9 -38 6 -14 -4 -19 0 -18 16 0 12 3 16 6 10 9 -24 23 -13
23 18 0 27 -2 30 -15 19 -13 -10 -15 -9 -15 9 0 15 5 21 16 19 12 -2 17 5 18
25 1 15 -2 27 -6 27 -4 0 -8 -5 -8 -11 0 -5 -4 -7 -10 -4 -16 10 -12 35 6 35
8 0 12 5 9 10 -3 6 -1 10 4 10 6 0 11 7 11 15 0 9 -6 15 -12 14 -27 -3 -38 2
-38 16 0 9 6 12 15 9 11 -5 15 1 15 20 0 27 -15 35 -23 14 -4 -8 -6 -7 -6 4
-1 9 -7 19 -13 21 -10 4 -9 6 1 6 11 1 11 4 1 15 -12 15 -39 11 -52 -8 -4 -6
-8 6 -8 27 0 29 -4 37 -18 37 -25 0 -34 -11 -22 -25 13 -15 -12 -28 -35 -19
-17 7 -20 24 -5 24 25 0 7 16 -21 18 -37 3 -57 -7 -38 -19 12 -8 12 -10 0 -18
-7 -5 -22 -6 -32 -4 -15 4 -19 0 -19 -21 0 -25 -10 -33 -23 -19 -4 3 -2 12 4
20 12 14 5 17 -38 13 -17 -1 -22 5 -25 27 l-4 28 -11 -25 c-11 -24 -12 -24
-12 -2 -1 12 -5 22 -11 22 -5 0 -10 5 -10 11 0 5 5 7 10 4 6 -3 10 -2 10 4 0
6 -37 11 -87 13 -75 3 -88 5 -85 19 1 11 -7 19 -25 24 -16 4 -22 10 -15 12 25
9 13 32 -15 29 -16 -2 -39 0 -53 5 -16 4 -19 7 -7 8 21 1 23 21 2 21 -10 0
-15 10 -15 27 0 35 -17 18 -23 -22 -4 -27 -4 -26 -6 8 0 20 -6 37 -12 37 -8 0
-8 4 0 14 9 11 8 15 -5 20 -25 10 -74 7 -74 -4 0 -5 5 -10 10 -10 6 0 10 -4
10 -9 0 -14 -25 -20 -41 -10 -12 8 -12 10 0 18 12 8 10 11 -10 14 -46 9 -68 6
-72 -11 -4 -15 -5 -15 -6 1 0 9 -6 17 -12 17 -8 0 -8 5 1 15 11 13 3 15 -59
15 -64 0 -71 2 -71 20 0 11 -5 20 -11 20 -5 0 -7 -4 -4 -10 3 -5 1 -10 -4 -10
-6 0 -11 16 -11 35 0 27 -4 35 -18 35 -25 0 -34 -11 -22 -25 13 -15 -12 -28
-35 -19 -17 7 -20 24 -5 24 6 0 10 4 10 8 0 4 -18 9 -40 10 -36 3 -40 0 -41
-20 0 -15 -3 -18 -6 -8 -3 8 -12 21 -21 28 -10 7 -11 12 -4 12 7 0 12 5 12 10
0 6 -18 10 -40 10 -22 0 -40 -4 -40 -10 0 -5 6 -10 13 -10 8 0 8 -3 -2 -9 -19
-12 -41 -3 -35 14 7 16 -19 26 -37 14 -12 -8 -12 -10 1 -19 10 -6 11 -10 3
-10 -7 0 -13 -8 -14 -17 0 -13 -3 -12 -10 5 -5 13 -7 27 -4 32 2 4 -10 11 -28
15 -28 6 -30 8 -12 15 16 7 13 9 -15 9 -19 -1 -30 -3 -23 -6 17 -6 -7 -32 -24
-26 -7 3 -13 -2 -13 -10 0 -9 -10 -17 -22 -19 -13 -2 -23 -10 -24 -18 -3 -44
-4 -46 -14 -30 -7 11 -10 7 -11 -20 -1 -22 -3 -27 -6 -15 -3 11 -9 25 -14 31
-5 6 -4 15 3 22 14 14 14 14 -77 12 -41 -1 -73 -6 -77 -13 -7 -11 -12 11 -9
39 1 6 -18 15 -41 19 -29 5 -36 9 -23 12 23 6 44 23 30 24 -6 0 -20 2 -32 3
-13 2 -23 -2 -23 -8 0 -6 -5 -3 -11 7 -5 9 -7 22 -4 27 3 6 1 10 -4 10 -6 0
-11 -6 -11 -12 0 -7 -5 -5 -11 5 -5 9 -8 21 -4 26 3 5 1 12 -5 16 -5 3 -10 1
-10 -5 0 -6 -7 -4 -17 5 -12 13 -26 15 -60 10 -46 -7 -75 2 -53 15 23 14 0 29
-35 23 -47 -8 -69 2 -56 24 8 17 3 18 -59 15 -61 -3 -69 -6 -73 -25 -3 -12 -4
-3 -2 21 2 23 -1 42 -6 42 -5 0 -9 -6 -9 -12 0 -7 -5 -5 -11 5 -6 10 -8 24 -5
32 6 16 -17 27 -39 19 -17 -7 -20 -24 -5 -24 6 0 10 -4 10 -10 0 -13 -37 -13
-44 -1 -4 5 0 11 6 14 22 8 1 18 -38 20 -36 2 -39 -1 -45 -28 -6 -29 -7 -28
-9 10 -1 22 -2 43 -1 48 0 4 -17 7 -40 7 -32 0 -40 -3 -36 -14 8 -21 -15 -37
-30 -21 -8 9 -9 15 0 24 6 6 7 11 2 12 -6 0 -18 2 -28 4 -13 2 -17 -2 -15 -17
2 -12 -3 -23 -9 -25 -8 -3 -13 4 -13 16 0 12 -6 21 -15 21 -8 0 -15 5 -15 10
0 6 -11 10 -25 10 -14 0 -25 -4 -25 -10z"/>
</g>
</svg>
